<?xml version="1.0" encoding="utf-8"?>
<!-- Generator: Adobe Illustrator 15.0.0, SVG Export Plug-In  -->
<!DOCTYPE svg PUBLIC "-//W3C//DTD SVG 1.1//EN" "http://www.w3.org/Graphics/SVG/1.1/DTD/svg11.dtd" [
	<!ENTITY ns_flows "http://ns.adobe.com/Flows/1.0/">
]>
<svg version="1.1"
	 xmlns="http://www.w3.org/2000/svg" xmlns:xlink="http://www.w3.org/1999/xlink" xmlns:a="http://ns.adobe.com/AdobeSVGViewerExtensions/3.0/"
	 x="0px" y="0px" width="696px" height="624px" viewBox="-167.559 -110.525 696 624"
	 enable-background="new -167.559 -110.525 696 624" xml:space="preserve">
<defs>
</defs>
<circle fill="#FFFFFF" cx="183.001" cy="183" r="183.001"/>
<path fill="#F91949" d="M158.808,253.778c0,0-45.5,4-56.25,37c-0.75,1.75-1.5,4.5-1.5,4.5s27.5,15.75,54.5-13
	c2-3.5,6-8.25,6.75-10.25s2.25-16.75,2.25-16.75L158.808,253.778z"/>
<path fill="#F91949" d="M170.808,257.529c0,0,18.999,44.334,54.667,42.167c1-0.5,11.334-38.5-30.334-43.167
	C192.475,256.362,171.475,255.029,170.808,257.529z"/>
<path fill="#3F291E" d="M250.641,158.362c0,0,27.627,66.743,17.75,96.262c-7.775,23.238-74.25,4.363-81.25,3.337
	s33.5-20.279,41.75-27.724C244.524,216.132,258.141,170.17,250.641,158.362z"/>
<path fill="#F9E8DE" d="M166.144,257.361c4.123-0.583,76.999,11.167,91.499-64.333c1-3.5-57.5-4-86.001-38
	c-33.75,26.25-75,30.25-74.5,26.75C97.642,183.278,88.517,254.653,166.144,257.361z"/>
<path fill="#F91949" d="M96.308,183.361c0,0,35-51.334,74.666-54.667c9.335-0.666,65.335,12.668,88.001,58.334
	c1.334,2.333,11.668-36.334,51.002-56c0,0-42-51.333-81-52c-2.334,0-42.334-6.001-67.001,3.333
	C156.308,85.694,75.974,106.027,96.308,183.361z"/>
<path fill="#F91949" d="M180.141,268.604c0,7.456-5.561,15.07-12,13.5c-10.25-2.5-12-6.044-12-13.5s5.383-13.133,12-13.5
	C177.141,254.604,180.141,261.147,180.141,268.604z"/>
<path fill="#3F291E" d="M171.699,169.279c0,0-51.75,39.25-75.035,19.715c-2.743,0-1.715-61.38,66.879-70.098
	c3.43,0.364,98.776,2.907,98.433,84.988C261.975,203.885,204.2,214.779,171.699,169.279z"/>
<path d="M43.366,343.36c-0.628,0-1.063-0.098-1.257-0.291c-0.242-0.145-0.338-0.482-0.338-1.015v-1.74
	c0-0.483,0.097-0.87,0.338-1.063c0.193-0.145,0.628-0.242,1.257-0.242h14.985v-1.305c0-0.58,0.048-1.063,0.145-1.45
	s0.242-0.677,0.532-0.919c0.193-0.193,0.532-0.338,0.967-0.435c0.387-0.097,0.918-0.146,1.595-0.146h4.641
	c1.257,0,2.127,0.193,2.61,0.58c0.387,0.436,0.628,1.209,0.628,2.369v1.305h14.84c0.58,0,1.015,0.098,1.257,0.242
	c0.193,0.193,0.338,0.58,0.338,1.063v1.74c0,0.532-0.145,0.87-0.338,1.015c-0.242,0.193-0.677,0.291-1.257,0.291H43.366z
	 M76.333,326.973c0.532-0.29,1.063-0.483,1.547-0.677c0.483-0.145,0.967-0.242,1.547-0.242c1.45,0,2.61,0.387,3.432,1.112
	c0.773,0.773,1.208,1.837,1.208,3.094c0,1.788-0.677,3.19-2.03,4.206c-1.354,1.063-3.335,1.547-5.946,1.547
	c-2.175,0-4.109-0.532-5.801-1.692c-1.74-1.063-3.045-2.514-3.916-4.302c-1.934,1.885-4.689,3.238-8.169,4.108
	c-3.577,0.919-7.734,1.354-12.568,1.354c-0.532,0-0.87-0.097-1.063-0.29s-0.338-0.436-0.387-0.773l-0.338-1.691
	c-0.097-0.291-0.048-0.58,0.145-0.822c0.097-0.193,0.435-0.29,0.918-0.387c4.157-0.436,7.396-1.305,9.716-2.61
	c2.272-1.257,3.577-3.094,3.867-5.607H46.363c-0.628,0-1.063-0.097-1.257-0.29c-0.242-0.145-0.338-0.483-0.338-1.016v-1.74
	c0-0.482,0.097-0.869,0.338-1.063c0.193-0.146,0.628-0.242,1.257-0.242h35.723c0.58,0,1.015,0.097,1.257,0.242
	c0.193,0.193,0.338,0.58,0.338,1.063v1.74c0,0.532-0.145,0.871-0.338,1.016c-0.242,0.193-0.677,0.29-1.257,0.29H69.614
	c-0.097,1.16-0.338,2.175-0.725,3.142c0.677,1.16,1.692,1.789,3.045,1.838C73.191,328.374,74.69,327.939,76.333,326.973z
	 M63.765,362.164c-3.529,0-6.526-0.193-8.991-0.532c-2.514-0.387-4.592-0.869-6.188-1.547c-1.644-0.725-2.804-1.595-3.529-2.609
	c-0.773-1.064-1.16-2.225-1.16-3.626c0-1.354,0.387-2.562,1.16-3.626c0.725-1.015,1.885-1.885,3.529-2.609
	c1.595-0.678,3.674-1.16,6.188-1.547c2.465-0.339,5.462-0.532,8.991-0.532c3.48,0,6.526,0.193,9.04,0.532
	c2.465,0.387,4.496,0.869,6.139,1.547c1.595,0.725,2.804,1.595,3.577,2.609c0.725,1.064,1.112,2.272,1.112,3.626
	c0,1.401-0.387,2.562-1.112,3.626c-0.773,1.015-1.982,1.885-3.577,2.609c-1.644,0.678-3.674,1.16-6.139,1.547
	C70.291,361.971,67.246,362.164,63.765,362.164z M63.765,349.886c-1.74,0-3.142,0.097-4.206,0.29
	c-1.16,0.193-2.03,0.483-2.707,0.821c-0.677,0.387-1.16,0.773-1.402,1.258c-0.29,0.482-0.435,1.015-0.435,1.595
	s0.145,1.112,0.435,1.595c0.242,0.484,0.725,0.871,1.402,1.258c0.677,0.338,1.547,0.628,2.707,0.821
	c1.063,0.193,2.465,0.29,4.206,0.29c1.644,0,3.045-0.097,4.206-0.29c1.112-0.193,2.03-0.483,2.707-0.821
	c0.677-0.387,1.16-0.773,1.45-1.258c0.242-0.482,0.387-1.015,0.387-1.595s-0.145-1.112-0.387-1.595
	c-0.29-0.484-0.773-0.871-1.45-1.258c-0.677-0.338-1.595-0.628-2.707-0.821C66.811,349.982,65.409,349.886,63.765,349.886z"/>
<path d="M102.962,361.197c-2.272,0-4.254-0.435-5.946-1.208c-1.74-0.822-3.142-2.079-4.302-3.771c-1.16-1.74-2.03-3.963-2.61-6.67
	c-0.58-2.659-0.87-5.898-0.87-9.717c0-3.771,0.29-7.058,0.87-9.765c0.58-2.659,1.45-4.882,2.61-6.622
	c1.16-1.692,2.562-2.949,4.302-3.771c1.692-0.773,3.674-1.208,5.946-1.208c2.224,0,4.254,0.435,5.994,1.208
	c1.692,0.822,3.142,2.079,4.302,3.771c1.16,1.74,2.03,3.963,2.659,6.622c0.58,2.707,0.87,5.994,0.87,9.765
	c0,3.818-0.29,7.058-0.87,9.717c-0.628,2.707-1.499,4.93-2.659,6.67c-1.16,1.692-2.61,2.949-4.302,3.771
	C107.216,360.763,105.186,361.197,102.962,361.197z M102.962,322.815c-0.435,0-0.822,0.193-1.16,0.531
	c-0.387,0.387-0.677,1.209-0.87,2.369c-0.29,1.209-0.483,2.9-0.58,5.124c-0.145,2.272-0.193,5.269-0.193,8.991
	c0,3.771,0.048,6.719,0.193,8.943c0.097,2.271,0.29,4.012,0.58,5.172c0.193,1.209,0.483,1.982,0.87,2.369
	c0.338,0.338,0.725,0.531,1.16,0.531c0.387,0,0.773-0.193,1.16-0.531c0.338-0.387,0.628-1.16,0.918-2.369
	c0.242-1.16,0.435-2.9,0.628-5.172c0.097-2.225,0.193-5.173,0.193-8.943c0-3.723-0.097-6.719-0.193-8.991
	c-0.193-2.224-0.387-3.915-0.628-5.124c-0.29-1.16-0.58-1.982-0.918-2.369C103.735,323.009,103.349,322.815,102.962,322.815z
	 M120.944,321.413c0-0.58,0.048-1.063,0.145-1.449s0.242-0.678,0.532-0.919c0.193-0.193,0.532-0.339,0.967-0.435
	c0.387-0.098,0.918-0.146,1.595-0.146h4.641c1.257,0,2.127,0.193,2.61,0.58c0.387,0.435,0.628,1.208,0.628,2.368v36.836
	c0,1.16-0.242,1.934-0.628,2.368c-0.483,0.387-1.354,0.58-2.61,0.58h-4.641c-0.677,0-1.208-0.048-1.595-0.146
	c-0.435-0.096-0.773-0.241-0.967-0.435c-0.29-0.241-0.435-0.532-0.532-0.919s-0.145-0.869-0.145-1.449V321.413z"/>
<path d="M137.712,340.169c-0.628,0-1.063-0.096-1.257-0.289c-0.242-0.146-0.338-0.484-0.338-1.016v-1.74
	c0-0.483,0.097-0.87,0.338-1.063c0.193-0.146,0.628-0.241,1.257-0.241h1.692v-12.521h-0.967c-0.628,0-1.063-0.097-1.257-0.29
	c-0.242-0.145-0.338-0.483-0.338-1.016v-1.74c0-0.482,0.097-0.869,0.338-1.063c0.193-0.146,0.628-0.242,1.257-0.242h25.088
	c0.58,0,1.015,0.097,1.257,0.242c0.193,0.193,0.338,0.58,0.338,1.063v1.74c0,0.532-0.145,0.871-0.338,1.016
	c-0.242,0.193-0.677,0.29-1.257,0.29h-0.435v12.521h1.16c0.58,0,1.015,0.096,1.257,0.241c0.193,0.193,0.338,0.58,0.338,1.063v1.74
	c0,0.531-0.145,0.87-0.338,1.016c-0.242,0.193-0.677,0.289-1.257,0.289H137.712z M177.979,352.013c0,0.918-0.242,1.498-0.725,1.789
	c-0.532,0.338-1.354,0.482-2.514,0.482h-22.865c-0.483,0-0.773,0.049-0.918,0.146c-0.193,0.146-0.242,0.387-0.242,0.726v0.58
	c0,0.435,0.048,0.725,0.242,0.918c0.097,0.145,0.435,0.242,0.918,0.242h24.508c0.58,0,1.015,0.096,1.257,0.289
	c0.193,0.146,0.338,0.484,0.338,1.016v1.644c0,0.483-0.145,0.87-0.338,1.063c-0.242,0.145-0.677,0.242-1.257,0.242h-31.663
	c-1.015,0-1.837-0.098-2.465-0.242c-0.677-0.193-1.208-0.483-1.595-0.87c-0.387-0.435-0.677-0.967-0.822-1.644
	c-0.193-0.677-0.242-1.547-0.242-2.514v-2.9c0-0.58,0.048-1.063,0.145-1.45s0.242-0.677,0.532-0.919
	c0.193-0.193,0.532-0.338,0.967-0.435c0.387-0.097,0.918-0.146,1.595-0.146h22.865c0.435,0,0.725-0.048,0.918-0.193
	c0.145-0.096,0.242-0.289,0.242-0.676v-0.822c0-0.338-0.097-0.58-0.242-0.725c-0.193-0.098-0.483-0.146-0.918-0.146h-24.508
	c-0.628,0-1.063-0.097-1.257-0.29c-0.242-0.145-0.338-0.483-0.338-1.016v-1.643c0-0.484,0.097-0.871,0.338-1.064
	c0.193-0.145,0.628-0.241,1.257-0.241h33.548c1.257,0,2.127,0.193,2.61,0.58c0.387,0.435,0.628,1.208,0.628,2.368V352.013z
	 M149.845,335.819h2.804v-12.521h-2.804V335.819z M177.979,332.146v6.525c0,1.16-0.242,1.934-0.628,2.32
	c-0.483,0.436-1.354,0.629-2.61,0.629H170.1c-0.677,0-1.208-0.049-1.595-0.146c-0.435-0.097-0.773-0.241-0.967-0.483
	c-0.29-0.193-0.435-0.483-0.532-0.87s-0.145-0.87-0.145-1.45v-17.258c0-0.58,0.048-1.063,0.145-1.449s0.242-0.678,0.532-0.919
	c0.193-0.193,0.532-0.339,0.967-0.435c0.387-0.098,0.918-0.146,1.595-0.146h4.641c1.257,0,2.127,0.193,2.61,0.58
	c0.387,0.435,0.628,1.208,0.628,2.368v6.381h4.496c0.58,0,1.015,0.098,1.257,0.242c0.193,0.193,0.338,0.58,0.338,1.063v1.74
	c0,0.532-0.145,0.87-0.338,1.015c-0.242,0.193-0.677,0.291-1.257,0.291H177.979z"/>
<path d="M199.629,361.197c-2.272,0-4.254-0.435-5.946-1.208c-1.74-0.822-3.142-2.079-4.302-3.771c-1.16-1.74-2.03-3.963-2.61-6.67
	c-0.58-2.659-0.87-5.898-0.87-9.717c0-3.771,0.29-7.058,0.87-9.765c0.58-2.659,1.45-4.882,2.61-6.622
	c1.16-1.692,2.562-2.949,4.302-3.771c1.692-0.773,3.674-1.208,5.946-1.208c2.224,0,4.254,0.435,5.994,1.208
	c1.692,0.822,3.142,2.079,4.302,3.771c1.16,1.74,2.03,3.963,2.659,6.622c0.58,2.707,0.87,5.994,0.87,9.765
	c0,3.818-0.29,7.058-0.87,9.717c-0.628,2.707-1.499,4.93-2.659,6.67c-1.16,1.692-2.61,2.949-4.302,3.771
	C203.883,360.763,201.853,361.197,199.629,361.197z M199.629,322.815c-0.435,0-0.822,0.193-1.16,0.531
	c-0.387,0.387-0.677,1.209-0.87,2.369c-0.29,1.209-0.483,2.9-0.58,5.124c-0.145,2.272-0.193,5.269-0.193,8.991
	c0,3.771,0.048,6.719,0.193,8.943c0.097,2.271,0.29,4.012,0.58,5.172c0.193,1.209,0.483,1.982,0.87,2.369
	c0.338,0.338,0.725,0.531,1.16,0.531c0.387,0,0.773-0.193,1.16-0.531c0.338-0.387,0.628-1.16,0.918-2.369
	c0.242-1.16,0.435-2.9,0.628-5.172c0.097-2.225,0.193-5.173,0.193-8.943c0-3.723-0.097-6.719-0.193-8.991
	c-0.193-2.224-0.387-3.915-0.628-5.124c-0.29-1.16-0.58-1.982-0.918-2.369C200.402,323.009,200.016,322.815,199.629,322.815z
	 M217.611,321.413c0-0.58,0.048-1.063,0.145-1.449s0.242-0.678,0.532-0.919c0.193-0.193,0.532-0.339,0.967-0.435
	c0.387-0.098,0.918-0.146,1.595-0.146h4.641c1.257,0,2.127,0.193,2.61,0.58c0.387,0.435,0.628,1.208,0.628,2.368v36.836
	c0,1.16-0.242,1.934-0.628,2.368c-0.483,0.387-1.354,0.58-2.61,0.58h-4.641c-0.677,0-1.208-0.048-1.595-0.146
	c-0.435-0.096-0.773-0.241-0.967-0.435c-0.29-0.241-0.435-0.532-0.532-0.919s-0.145-0.869-0.145-1.449V321.413z"/>
<path d="M235.732,359.747c-0.628,0-1.063-0.097-1.257-0.242c-0.242-0.193-0.338-0.58-0.338-1.063v-1.74
	c0-0.532,0.097-0.871,0.338-1.016c0.193-0.193,0.628-0.29,1.257-0.29h14.937v-5.414c0-0.58,0.048-1.063,0.145-1.45
	s0.242-0.677,0.532-0.918c0.193-0.193,0.532-0.339,0.967-0.436c0.387-0.097,0.918-0.145,1.595-0.145h4.641
	c1.257,0,2.127,0.193,2.61,0.58c0.387,0.435,0.628,1.208,0.628,2.368v5.414h14.889c0.58,0,1.015,0.097,1.257,0.29
	c0.193,0.145,0.338,0.483,0.338,1.016v1.74c0,0.482-0.145,0.869-0.338,1.063c-0.242,0.146-0.677,0.242-1.257,0.242H235.732z
	 M261.739,324.556c0,3.094-0.387,5.801-1.16,8.121c0.29,1.45,0.773,2.563,1.402,3.238c0.58,0.773,1.257,1.258,1.982,1.499
	c0.677,0.29,1.45,0.339,2.224,0.193c0.725-0.097,1.402-0.241,2.079-0.532c0.628-0.241,1.208-0.435,1.789-0.58
	c0.483-0.096,1.015-0.193,1.595-0.193c1.595,0,2.852,0.484,3.722,1.402c0.822,0.967,1.257,2.078,1.305,3.432
	c0.048,1.838-0.532,3.336-1.789,4.399c-1.305,1.16-3.094,1.692-5.366,1.692c-1.547,0-2.997-0.242-4.254-0.726
	c-1.305-0.435-2.417-1.112-3.384-1.981c-0.967-0.822-1.789-1.838-2.417-2.998c-0.677-1.16-1.208-2.416-1.499-3.867
	c-1.934,2.563-4.592,4.593-7.879,6.043c-3.335,1.547-7.444,2.563-12.327,3.094c-0.532,0.097-0.87,0-1.063-0.242
	c-0.193-0.193-0.338-0.482-0.387-0.821l-0.387-1.74c-0.097-0.29-0.048-0.58,0.145-0.773c0.097-0.146,0.435-0.29,0.918-0.435
	c4.496-1.16,7.879-3.191,10.2-6.14c2.272-2.9,3.432-6.961,3.432-12.085v-3.143c0-0.58,0.048-1.063,0.145-1.449
	s0.242-0.678,0.532-0.919c0.193-0.193,0.532-0.339,0.967-0.435c0.387-0.098,0.918-0.146,1.595-0.146h4.641
	c1.257,0,2.127,0.193,2.61,0.58c0.387,0.435,0.628,1.208,0.628,2.368V324.556z"/>
<path d="M292.767,352.351c0,0.773,0.145,1.258,0.483,1.547c0.29,0.291,0.87,0.436,1.74,0.436c0.773,0,1.644-0.049,2.514-0.242
	c0.87-0.096,1.692-0.289,2.562-0.58c0.822-0.241,1.644-0.531,2.417-0.918c0.725-0.338,1.402-0.725,2.079-1.111
	c0.387-0.242,0.725-0.387,0.967-0.387c0.193,0.048,0.387,0.193,0.58,0.435l1.015,1.547c0.097,0.193,0.193,0.435,0.193,0.628
	c0,0.242-0.145,0.436-0.338,0.629c-1.015,0.87-2.224,1.691-3.625,2.465c-1.45,0.773-2.997,1.451-4.641,2.031
	s-3.335,1.015-5.076,1.401c-1.74,0.29-3.432,0.483-5.076,0.483c-2.272,0-3.964-0.531-5.124-1.498
	c-1.208-1.064-1.789-2.563-1.789-4.496v-33.307c0-0.58,0.048-1.063,0.145-1.449s0.242-0.678,0.532-0.919
	c0.193-0.193,0.532-0.339,0.967-0.435c0.387-0.098,0.918-0.146,1.595-0.146h4.641c1.257,0,2.127,0.193,2.61,0.58
	c0.387,0.435,0.628,1.208,0.628,2.368V352.351z M310.894,344.907H302c-0.628,0-1.063-0.098-1.257-0.291
	c-0.242-0.145-0.338-0.482-0.338-1.015v-1.74c0-0.483,0.097-0.87,0.338-1.063c0.193-0.145,0.628-0.242,1.257-0.242h8.895v-8.217H302
	c-0.628,0-1.063-0.098-1.257-0.291c-0.242-0.145-0.338-0.482-0.338-1.015v-1.74c0-0.483,0.097-0.87,0.338-1.063
	c0.193-0.145,0.628-0.242,1.257-0.242h8.895v-6.574c0-0.58,0.048-1.063,0.145-1.449s0.242-0.678,0.532-0.919
	c0.193-0.193,0.532-0.339,0.967-0.435c0.387-0.098,0.918-0.146,1.595-0.146h4.641c1.257,0,2.127,0.193,2.61,0.58
	c0.387,0.435,0.628,1.208,0.628,2.368v36.836c0,1.16-0.242,1.934-0.628,2.368c-0.483,0.387-1.354,0.58-2.61,0.58h-4.641
	c-0.677,0-1.208-0.048-1.595-0.146c-0.435-0.096-0.773-0.241-0.967-0.435c-0.29-0.241-0.435-0.532-0.532-0.919
	s-0.145-0.869-0.145-1.449V344.907z"/>
</svg>
