<?xml version="1.0" encoding="utf-8"?>
<!-- Generator: Adobe Illustrator 15.0.0, SVG Export Plug-In  -->
<!DOCTYPE svg PUBLIC "-//W3C//DTD SVG 1.1//EN" "http://www.w3.org/Graphics/SVG/1.1/DTD/svg11.dtd" [
	<!ENTITY ns_flows "http://ns.adobe.com/Flows/1.0/">
]>
<svg version="1.1"
	 xmlns="http://www.w3.org/2000/svg" xmlns:xlink="http://www.w3.org/1999/xlink" xmlns:a="http://ns.adobe.com/AdobeSVGViewerExtensions/3.0/"
	 x="0px" y="0px" width="1217px" height="698px" viewBox="-1.01 56.136 1217 698" enable-background="new -1.01 56.136 1217 698"
	 xml:space="preserve">
<defs>
</defs>
<rect y="56.136" fill="#CDDEFF" width="1217.372" height="698.392"/>
<circle fill="#FFFFFF" cx="608.687" cy="399.493" r="183.001"/>
<ellipse transform="matrix(0.9945 -0.105 0.105 0.9945 -29.8251 68.183)" fill="none" cx="632.625" cy="317.342" rx="66.675" ry="54.201"/>
<text transform="matrix(1.2039 -0.2527 0.2054 0.9787 613.73 265.7759)" fill="#A09898" font-family="'UhBeeKang-Ja'" font-size="10.6623">지</text>
<text transform="matrix(1.225 -0.113 0.0919 0.9958 623.3496 263.7666)" fill="#A09898" font-family="'UhBeeKang-Ja'" font-size="10.6623">금</text>
<text transform="matrix(1.2301 0.0151 -0.0123 0.9999 632.1362 262.9355)" fill="#A09898" font-family="'UhBeeKang-Ja'" font-size="10.6623">이</text>
<text transform="matrix(1.2249 0.1137 -0.0924 0.9957 640.9004 263.1294)" fill="#A09898" font-family="'UhBeeKang-Ja'" font-size="10.6623"> </text>
<text transform="matrix(1.2075 0.235 -0.1911 0.9816 644.9932 263.3145)" fill="#A09898" font-family="'UhBeeKang-Ja'" font-size="10.6623">제</text>
<text transform="matrix(1.1578 0.4158 -0.338 0.9411 656.1216 265.4507)" fill="#A09898" font-family="'UhBeeKang-Ja'" font-size="10.6623">철</text>
<circle fill="none" cx="629.757" cy="402.784" r="118.001"/>
<text transform="matrix(0.9341 -0.3571 0.3571 0.9341 578.3823 296.0845)"><tspan x="0" y="0" fill="#FFF23F" font-family="'UhBeeKang-Ja'" font-size="23.2132">★</tspan><tspan x="19.019" y="0.331" fill="#FFF23F" font-family="'UhBeeKang-Ja'" font-size="23.2132" rotate="5.887"> </tspan><tspan x="26.165" y="0.824" font-family="'UhBeeKang-Ja'" font-size="23.2132" rotate="12.026">종</tspan><tspan x="42.507" y="4.315" font-family="'UhBeeKang-Ja'" font-size="23.2132" rotate="19.791">이</tspan><tspan x="56.9" y="9.334" font-family="'UhBeeKang-Ja'" font-size="23.2132" rotate="27.983">천</tspan><tspan x="73.096" y="17.758" font-family="'UhBeeKang-Ja'" font-size="23.2132" rotate="37.493">재</tspan><tspan x="89.528" y="30.848" font-family="'UhBeeKang-Ja'" font-size="23.2132" rotate="44.292"> </tspan><tspan x="94.875" y="35.575" fill="#FFEB3F" font-family="'UhBeeKang-Ja'" font-size="23.2132" rotate="50.597">★</tspan></text>
<path fill="#F91949" d="M584.494,470.271c0,0-45.5,4-56.25,37c-0.75,1.75-1.5,4.5-1.5,4.5s27.5,15.75,54.5-13
	c2-3.5,6-8.25,6.75-10.25s2.25-16.75,2.25-16.75L584.494,470.271z"/>
<path fill="#F91949" d="M596.494,474.022c0,0,18.999,44.334,54.667,42.167c1-0.5,11.334-38.5-30.334-43.167
	C618.161,472.855,597.161,471.522,596.494,474.022z"/>
<path fill="#3F291E" d="M676.327,374.855c0,0,27.627,66.743,17.75,96.262c-7.775,23.238-74.25,4.363-81.25,3.337
	s33.5-20.279,41.75-27.724C670.21,432.625,683.827,386.663,676.327,374.855z"/>
<path fill="#F9E8DE" d="M591.83,473.854c4.123-0.583,76.999,11.167,91.499-64.333c1-3.5-57.5-4-86.001-38
	c-33.75,26.25-75,30.25-74.5,26.75C523.328,399.771,514.203,471.146,591.83,473.854z"/>
<path fill="#F91949" d="M521.994,399.854c0,0,35-51.334,74.666-54.667c9.335-0.666,65.335,12.668,88.001,58.334
	c1.334,2.333,11.668-36.334,51.002-56c0,0-42-51.333-81-52c-2.334,0-42.334-6.001-67.001,3.333
	C581.994,302.188,501.66,322.521,521.994,399.854z"/>
<path fill="#F91949" d="M605.827,485.097c0,7.456-5.561,15.07-12,13.5c-10.25-2.5-12-6.044-12-13.5s5.383-13.133,12-13.5
	C602.827,471.097,605.827,477.641,605.827,485.097z"/>
<path fill="#3F291E" d="M597.385,385.772c0,0-51.75,39.25-75.035,19.715c-2.743,0-1.715-61.38,66.879-70.098
	c3.43,0.364,98.776,2.907,98.433,84.988C687.661,420.378,629.886,431.272,597.385,385.772z"/>
<path d="M469.052,559.854c-0.628,0-1.063-0.098-1.257-0.291c-0.242-0.145-0.338-0.482-0.338-1.015v-1.74
	c0-0.483,0.096-0.87,0.338-1.063c0.193-0.145,0.629-0.242,1.257-0.242h14.985v-1.305c0-0.58,0.049-1.063,0.145-1.45
	c0.098-0.387,0.242-0.677,0.532-0.919c0.193-0.193,0.532-0.338,0.967-0.435c0.387-0.097,0.919-0.146,1.595-0.146h4.641
	c1.258,0,2.127,0.193,2.611,0.58c0.387,0.436,0.628,1.209,0.628,2.369v1.305h14.841c0.58,0,1.015,0.098,1.256,0.242
	c0.193,0.193,0.339,0.58,0.339,1.063v1.74c0,0.532-0.146,0.87-0.339,1.015c-0.241,0.193-0.676,0.291-1.256,0.291H469.052z
	 M502.02,543.466c0.531-0.29,1.063-0.483,1.547-0.677c0.483-0.145,0.967-0.242,1.547-0.242c1.45,0,2.61,0.387,3.432,1.112
	c0.773,0.773,1.209,1.837,1.209,3.094c0,1.788-0.677,3.19-2.03,4.206c-1.354,1.063-3.335,1.547-5.946,1.547
	c-2.175,0-4.108-0.532-5.801-1.692c-1.74-1.063-3.045-2.514-3.915-4.302c-1.934,1.885-4.688,3.238-8.169,4.108
	c-3.578,0.919-7.734,1.354-12.568,1.354c-0.532,0-0.871-0.097-1.064-0.29s-0.338-0.436-0.387-0.773l-0.338-1.691
	c-0.097-0.291-0.049-0.58,0.145-0.822c0.098-0.193,0.436-0.29,0.919-0.387c4.157-0.436,7.396-1.305,9.716-2.61
	c2.272-1.257,3.578-3.094,3.867-5.607h-12.133c-0.629,0-1.063-0.097-1.257-0.29c-0.241-0.145-0.339-0.483-0.339-1.016v-1.74
	c0-0.482,0.098-0.869,0.339-1.063c0.193-0.146,0.628-0.242,1.257-0.242h35.723c0.58,0,1.016,0.097,1.258,0.242
	c0.193,0.193,0.338,0.58,0.338,1.063v1.74c0,0.532-0.145,0.871-0.338,1.016c-0.242,0.193-0.678,0.29-1.258,0.29h-12.471
	c-0.098,1.16-0.339,2.175-0.726,3.142c0.677,1.16,1.692,1.789,3.046,1.838C498.877,544.867,500.376,544.433,502.02,543.466z
	 M489.451,578.657c-3.529,0-6.525-0.193-8.991-0.532c-2.514-0.387-4.593-0.869-6.188-1.547c-1.644-0.725-2.804-1.595-3.528-2.609
	c-0.773-1.064-1.16-2.225-1.16-3.626c0-1.354,0.387-2.562,1.16-3.626c0.725-1.015,1.885-1.885,3.528-2.609
	c1.595-0.678,3.674-1.16,6.188-1.547c2.466-0.339,5.462-0.532,8.991-0.532c3.48,0,6.525,0.193,9.039,0.532
	c2.466,0.387,4.496,0.869,6.14,1.547c1.595,0.725,2.804,1.595,3.577,2.609c0.725,1.064,1.111,2.272,1.111,3.626
	c0,1.401-0.387,2.562-1.111,3.626c-0.773,1.015-1.982,1.885-3.577,2.609c-1.644,0.678-3.674,1.16-6.14,1.547
	C495.977,578.464,492.932,578.657,489.451,578.657z M489.451,566.379c-1.74,0-3.143,0.097-4.205,0.29
	c-1.16,0.193-2.031,0.483-2.707,0.821c-0.678,0.387-1.16,0.773-1.402,1.258c-0.29,0.482-0.436,1.015-0.436,1.595
	s0.146,1.112,0.436,1.595c0.242,0.484,0.725,0.871,1.402,1.258c0.676,0.338,1.547,0.628,2.707,0.821
	c1.063,0.193,2.465,0.29,4.205,0.29c1.644,0,3.045-0.097,4.205-0.29c1.112-0.193,2.031-0.483,2.707-0.821
	c0.678-0.387,1.16-0.773,1.451-1.258c0.241-0.482,0.387-1.015,0.387-1.595s-0.146-1.112-0.387-1.595
	c-0.291-0.484-0.773-0.871-1.451-1.258c-0.676-0.338-1.595-0.628-2.707-0.821C492.496,566.476,491.095,566.379,489.451,566.379z"/>
<path d="M528.648,577.69c-2.272,0-4.254-0.435-5.946-1.208c-1.74-0.822-3.142-2.079-4.302-3.771c-1.16-1.74-2.031-3.963-2.611-6.67
	c-0.58-2.659-0.869-5.898-0.869-9.717c0-3.771,0.289-7.058,0.869-9.765c0.58-2.659,1.451-4.882,2.611-6.622
	c1.16-1.692,2.562-2.949,4.302-3.771c1.692-0.773,3.674-1.208,5.946-1.208c2.223,0,4.254,0.435,5.994,1.208
	c1.691,0.822,3.142,2.079,4.302,3.771c1.16,1.74,2.03,3.963,2.659,6.622c0.58,2.707,0.869,5.994,0.869,9.765
	c0,3.818-0.289,7.058-0.869,9.717c-0.629,2.707-1.499,4.93-2.659,6.67c-1.16,1.692-2.61,2.949-4.302,3.771
	C532.902,577.256,530.871,577.69,528.648,577.69z M528.648,539.309c-0.436,0-0.822,0.193-1.16,0.531
	c-0.387,0.387-0.678,1.209-0.871,2.369c-0.289,1.209-0.482,2.9-0.58,5.124c-0.145,2.272-0.193,5.269-0.193,8.991
	c0,3.771,0.049,6.719,0.193,8.943c0.098,2.271,0.291,4.012,0.58,5.172c0.193,1.209,0.484,1.982,0.871,2.369
	c0.338,0.338,0.725,0.531,1.16,0.531c0.387,0,0.773-0.193,1.16-0.531c0.338-0.387,0.628-1.16,0.918-2.369
	c0.242-1.16,0.436-2.9,0.629-5.172c0.096-2.225,0.193-5.173,0.193-8.943c0-3.723-0.098-6.719-0.193-8.991
	c-0.193-2.224-0.387-3.915-0.629-5.124c-0.29-1.16-0.58-1.982-0.918-2.369C529.422,539.502,529.035,539.309,528.648,539.309z
	 M546.631,537.906c0-0.58,0.048-1.063,0.145-1.449s0.242-0.678,0.531-0.919c0.193-0.193,0.532-0.339,0.967-0.435
	c0.387-0.098,0.919-0.146,1.596-0.146h4.641c1.257,0,2.127,0.193,2.61,0.58c0.387,0.435,0.628,1.208,0.628,2.368v36.836
	c0,1.16-0.241,1.934-0.628,2.368c-0.483,0.387-1.354,0.58-2.61,0.58h-4.641c-0.677,0-1.209-0.048-1.596-0.146
	c-0.435-0.096-0.773-0.241-0.967-0.435c-0.289-0.241-0.435-0.532-0.531-0.919s-0.145-0.869-0.145-1.449V537.906z"/>
<path d="M563.398,556.662c-0.629,0-1.064-0.096-1.258-0.289c-0.241-0.146-0.338-0.484-0.338-1.016v-1.74
	c0-0.483,0.097-0.87,0.338-1.063c0.193-0.146,0.629-0.241,1.258-0.241h1.691v-12.521h-0.967c-0.629,0-1.063-0.097-1.257-0.29
	c-0.241-0.145-0.339-0.483-0.339-1.016v-1.74c0-0.482,0.098-0.869,0.339-1.063c0.193-0.146,0.628-0.242,1.257-0.242h25.088
	c0.58,0,1.016,0.097,1.258,0.242c0.193,0.193,0.338,0.58,0.338,1.063v1.74c0,0.532-0.145,0.871-0.338,1.016
	c-0.242,0.193-0.678,0.29-1.258,0.29h-0.435v12.521h1.16c0.58,0,1.015,0.096,1.257,0.241c0.193,0.193,0.338,0.58,0.338,1.063v1.74
	c0,0.531-0.145,0.87-0.338,1.016c-0.242,0.193-0.677,0.289-1.257,0.289H563.398z M603.665,568.506c0,0.918-0.241,1.498-0.726,1.789
	c-0.531,0.338-1.354,0.482-2.514,0.482h-22.864c-0.483,0-0.773,0.049-0.919,0.146c-0.193,0.146-0.241,0.387-0.241,0.726v0.58
	c0,0.435,0.048,0.725,0.241,0.918c0.098,0.145,0.436,0.242,0.919,0.242h24.509c0.58,0,1.015,0.096,1.256,0.289
	c0.193,0.146,0.339,0.484,0.339,1.016v1.644c0,0.483-0.146,0.87-0.339,1.063c-0.241,0.145-0.676,0.242-1.256,0.242h-31.663
	c-1.015,0-1.837-0.098-2.466-0.242c-0.676-0.193-1.208-0.483-1.595-0.87c-0.387-0.435-0.677-0.967-0.821-1.644
	c-0.193-0.677-0.242-1.547-0.242-2.514v-2.9c0-0.58,0.049-1.063,0.145-1.45c0.098-0.387,0.242-0.677,0.532-0.919
	c0.193-0.193,0.532-0.338,0.967-0.435c0.387-0.097,0.919-0.146,1.595-0.146h22.865c0.436,0,0.725-0.048,0.918-0.193
	c0.146-0.096,0.242-0.289,0.242-0.676v-0.822c0-0.338-0.097-0.58-0.242-0.725c-0.193-0.098-0.482-0.146-0.918-0.146h-24.508
	c-0.629,0-1.064-0.097-1.258-0.29c-0.241-0.145-0.338-0.483-0.338-1.016v-1.643c0-0.484,0.097-0.871,0.338-1.064
	c0.193-0.145,0.629-0.241,1.258-0.241h33.547c1.258,0,2.127,0.193,2.611,0.58c0.387,0.435,0.628,1.208,0.628,2.368V568.506z
	 M575.531,552.313h2.804v-12.521h-2.804V552.313z M603.665,548.639v6.525c0,1.16-0.241,1.934-0.628,2.32
	c-0.484,0.436-1.354,0.629-2.611,0.629h-4.641c-0.676,0-1.208-0.049-1.595-0.146c-0.435-0.097-0.773-0.241-0.967-0.483
	c-0.29-0.193-0.435-0.483-0.532-0.87c-0.096-0.387-0.145-0.87-0.145-1.45v-17.258c0-0.58,0.049-1.063,0.145-1.449
	c0.098-0.387,0.242-0.678,0.532-0.919c0.193-0.193,0.532-0.339,0.967-0.435c0.387-0.098,0.919-0.146,1.595-0.146h4.641
	c1.258,0,2.127,0.193,2.611,0.58c0.387,0.435,0.628,1.208,0.628,2.368v6.381h4.495c0.58,0,1.016,0.098,1.258,0.242
	c0.193,0.193,0.338,0.58,0.338,1.063v1.74c0,0.532-0.145,0.87-0.338,1.015c-0.242,0.193-0.678,0.291-1.258,0.291H603.665z"/>
<path d="M625.314,577.69c-2.271,0-4.254-0.435-5.945-1.208c-1.74-0.822-3.143-2.079-4.303-3.771c-1.16-1.74-2.029-3.963-2.609-6.67
	c-0.58-2.659-0.871-5.898-0.871-9.717c0-3.771,0.291-7.058,0.871-9.765c0.58-2.659,1.449-4.882,2.609-6.622
	c1.16-1.692,2.563-2.949,4.303-3.771c1.691-0.773,3.674-1.208,5.945-1.208c2.225,0,4.254,0.435,5.994,1.208
	c1.692,0.822,3.143,2.079,4.303,3.771c1.16,1.74,2.03,3.963,2.658,6.622c0.58,2.707,0.871,5.994,0.871,9.765
	c0,3.818-0.291,7.058-0.871,9.717c-0.628,2.707-1.498,4.93-2.658,6.67c-1.16,1.692-2.61,2.949-4.303,3.771
	C629.568,577.256,627.539,577.69,625.314,577.69z M625.314,539.309c-0.435,0-0.821,0.193-1.16,0.531
	c-0.387,0.387-0.676,1.209-0.869,2.369c-0.291,1.209-0.484,2.9-0.58,5.124c-0.146,2.272-0.193,5.269-0.193,8.991
	c0,3.771,0.048,6.719,0.193,8.943c0.096,2.271,0.289,4.012,0.58,5.172c0.193,1.209,0.482,1.982,0.869,2.369
	c0.339,0.338,0.726,0.531,1.16,0.531c0.387,0,0.773-0.193,1.16-0.531c0.339-0.387,0.629-1.16,0.919-2.369
	c0.241-1.16,0.435-2.9,0.628-5.172c0.098-2.225,0.193-5.173,0.193-8.943c0-3.723-0.096-6.719-0.193-8.991
	c-0.193-2.224-0.387-3.915-0.628-5.124c-0.29-1.16-0.58-1.982-0.919-2.369C626.088,539.502,625.701,539.309,625.314,539.309z
	 M643.297,537.906c0-0.58,0.049-1.063,0.146-1.449s0.241-0.678,0.532-0.919c0.193-0.193,0.531-0.339,0.967-0.435
	c0.387-0.098,0.918-0.146,1.595-0.146h4.641c1.257,0,2.127,0.193,2.61,0.58c0.387,0.435,0.629,1.208,0.629,2.368v36.836
	c0,1.16-0.242,1.934-0.629,2.368c-0.483,0.387-1.354,0.58-2.61,0.58h-4.641c-0.677,0-1.208-0.048-1.595-0.146
	c-0.436-0.096-0.773-0.241-0.967-0.435c-0.291-0.241-0.436-0.532-0.532-0.919s-0.146-0.869-0.146-1.449V537.906z"/>
<path d="M661.418,576.24c-0.629,0-1.063-0.097-1.257-0.242c-0.241-0.193-0.339-0.58-0.339-1.063v-1.74
	c0-0.532,0.098-0.871,0.339-1.016c0.193-0.193,0.628-0.29,1.257-0.29h14.938v-5.414c0-0.58,0.048-1.063,0.145-1.45
	s0.242-0.677,0.531-0.918c0.193-0.193,0.532-0.339,0.967-0.436c0.387-0.097,0.919-0.145,1.596-0.145h4.641
	c1.257,0,2.127,0.193,2.61,0.58c0.387,0.435,0.628,1.208,0.628,2.368v5.414h14.889c0.58,0,1.016,0.097,1.258,0.29
	c0.193,0.145,0.338,0.483,0.338,1.016v1.74c0,0.482-0.145,0.869-0.338,1.063c-0.242,0.146-0.678,0.242-1.258,0.242H661.418z
	 M687.425,541.049c0,3.094-0.387,5.801-1.16,8.121c0.29,1.45,0.773,2.563,1.401,3.238c0.58,0.773,1.258,1.258,1.982,1.499
	c0.677,0.29,1.45,0.339,2.224,0.193c0.726-0.097,1.401-0.241,2.079-0.532c0.628-0.241,1.208-0.435,1.788-0.58
	c0.483-0.096,1.015-0.193,1.595-0.193c1.596,0,2.853,0.484,3.723,1.402c0.822,0.967,1.257,2.078,1.305,3.432
	c0.049,1.838-0.531,3.336-1.788,4.399c-1.306,1.16-3.094,1.692-5.366,1.692c-1.547,0-2.996-0.242-4.254-0.726
	c-1.305-0.435-2.416-1.112-3.383-1.981c-0.967-0.822-1.789-1.838-2.418-2.998c-0.676-1.16-1.208-2.416-1.498-3.867
	c-1.934,2.563-4.592,4.593-7.879,6.043c-3.336,1.547-7.445,2.563-12.327,3.094c-0.532,0.097-0.87,0-1.063-0.242
	c-0.193-0.193-0.338-0.482-0.387-0.821l-0.387-1.74c-0.097-0.29-0.049-0.58,0.145-0.773c0.098-0.146,0.436-0.29,0.919-0.435
	c4.495-1.16,7.88-3.191,10.2-6.14c2.271-2.9,3.432-6.961,3.432-12.085v-3.143c0-0.58,0.049-1.063,0.145-1.449
	c0.098-0.387,0.242-0.678,0.532-0.919c0.193-0.193,0.532-0.339,0.967-0.435c0.387-0.098,0.919-0.146,1.595-0.146h4.641
	c1.258,0,2.127,0.193,2.611,0.58c0.387,0.435,0.628,1.208,0.628,2.368V541.049z"/>
<path d="M718.453,568.844c0,0.773,0.145,1.258,0.482,1.547c0.291,0.291,0.871,0.436,1.74,0.436c0.773,0,1.645-0.049,2.514-0.242
	c0.871-0.096,1.692-0.289,2.563-0.58c0.822-0.241,1.644-0.531,2.417-0.918c0.726-0.338,1.401-0.725,2.079-1.111
	c0.387-0.242,0.725-0.387,0.967-0.387c0.193,0.048,0.387,0.193,0.58,0.435l1.015,1.547c0.097,0.193,0.193,0.435,0.193,0.628
	c0,0.242-0.146,0.436-0.339,0.629c-1.015,0.87-2.223,1.691-3.625,2.465c-1.45,0.773-2.997,1.451-4.641,2.031
	s-3.336,1.015-5.076,1.401c-1.74,0.29-3.432,0.483-5.075,0.483c-2.272,0-3.964-0.531-5.124-1.498
	c-1.209-1.064-1.789-2.563-1.789-4.496v-33.307c0-0.58,0.049-1.063,0.146-1.449s0.241-0.678,0.532-0.919
	c0.193-0.193,0.531-0.339,0.967-0.435c0.387-0.098,0.918-0.146,1.595-0.146h4.641c1.257,0,2.127,0.193,2.61,0.58
	c0.387,0.435,0.629,1.208,0.629,2.368V568.844z M736.58,561.4h-8.895c-0.629,0-1.063-0.098-1.257-0.291
	c-0.241-0.145-0.339-0.482-0.339-1.015v-1.74c0-0.483,0.098-0.87,0.339-1.063c0.193-0.145,0.628-0.242,1.257-0.242h8.895v-8.217
	h-8.895c-0.629,0-1.063-0.098-1.257-0.291c-0.241-0.145-0.339-0.482-0.339-1.015v-1.74c0-0.483,0.098-0.87,0.339-1.063
	c0.193-0.145,0.628-0.242,1.257-0.242h8.895v-6.574c0-0.58,0.049-1.063,0.145-1.449c0.098-0.387,0.242-0.678,0.532-0.919
	c0.193-0.193,0.532-0.339,0.967-0.435c0.387-0.098,0.919-0.146,1.595-0.146h4.641c1.258,0,2.127,0.193,2.611,0.58
	c0.387,0.435,0.628,1.208,0.628,2.368v36.836c0,1.16-0.241,1.934-0.628,2.368c-0.484,0.387-1.354,0.58-2.611,0.58h-4.641
	c-0.676,0-1.208-0.048-1.595-0.146c-0.435-0.096-0.773-0.241-0.967-0.435c-0.29-0.241-0.435-0.532-0.532-0.919
	c-0.096-0.387-0.145-0.869-0.145-1.449V561.4z"/>
<text transform="matrix(1 0 0 1 591.1362 43.3408)" font-family="'UhBeeKang-JaBold'" font-size="48.3333">☆종이사세요☆</text>
<path fill="#F9EB41" d="M557.947,289.076l0.654-0.288c0.929,0.659,1.615,1.032,2.058,1.119c1.325,0.895,2.044,1.465,2.151,1.712
	l0.787-0.346c0.195-0.086,0.389-0.119,0.581-0.099c0.116-0.155,0.271-0.276,0.466-0.362l0.263-0.116
	c1.696-0.635,2.696-0.606,3.001,0.088c0.143,0.324-0.582,1.16-2.171,2.51c1.188,1.28,2.096,2.393,2.721,3.339
	c0.004,0.47-0.075,0.763-0.239,0.877l-0.656,0.289c-0.063-0.144-0.715-0.323-1.956-0.537c-0.06-0.134-0.542-0.286-1.452-0.456
	l-0.057-0.131l-0.255,0.112c0.116,0.752-0.117,1.999-0.7,3.739l-0.205,0.247l-0.262,0.116c-0.216,0.095-0.625-0.244-1.229-1.015
	l0.131-0.058l-0.246-0.205l-1.049-3.448l-0.131,0.058c-0.115,0.155-0.271,0.275-0.467,0.361l-2.35,1.034
	c-0.453,0.199-0.772,0.184-0.959-0.047c-0.446-1.012-0.059-1.91,1.161-2.691c0.963-0.878,1.394-1.432,1.292-1.664
	c-0.07-0.159-0.137-0.546-0.199-1.163c-0.039-0.087-0.102-0.111-0.188-0.073L557.947,289.076z"/>
<path fill="#F9F441" d="M702.516,300.938l0.654-0.288c0.929,0.659,1.614,1.032,2.058,1.119c1.325,0.895,2.043,1.465,2.151,1.712
	l0.786-0.346c0.195-0.086,0.39-0.118,0.581-0.099c0.116-0.155,0.271-0.276,0.467-0.362l0.262-0.115
	c1.696-0.635,2.696-0.606,3.002,0.087c0.143,0.324-0.582,1.161-2.172,2.51c1.189,1.28,2.097,2.393,2.721,3.339
	c0.004,0.47-0.075,0.763-0.239,0.877l-0.655,0.289c-0.063-0.144-0.715-0.323-1.957-0.537c-0.059-0.134-0.542-0.286-1.451-0.456
	l-0.058-0.131l-0.255,0.112c0.117,0.752-0.117,1.999-0.7,3.74l-0.204,0.247l-0.263,0.115c-0.216,0.095-0.624-0.244-1.228-1.015
	l0.131-0.057l-0.246-0.205l-1.049-3.448l-0.131,0.058c-0.115,0.155-0.271,0.275-0.467,0.361l-2.351,1.034
	c-0.452,0.199-0.771,0.185-0.959-0.047c-0.446-1.012-0.059-1.91,1.161-2.691c0.963-0.877,1.395-1.432,1.293-1.664
	c-0.07-0.159-0.137-0.547-0.199-1.164c-0.039-0.087-0.102-0.111-0.189-0.073L702.516,300.938z"/>
<path fill="#F9F45C" d="M539.098,296.722l0.925,0.113c0.601,1.354,1.119,2.226,1.557,2.618c0.889,1.882,1.312,2.997,1.269,3.345
	l1.109,0.135c0.275,0.034,0.516,0.126,0.718,0.276c0.231-0.097,0.485-0.128,0.761-0.095l0.371,0.045
	c2.318,0.417,3.418,1.113,3.298,2.091c-0.056,0.458-1.421,0.912-4.096,1.365c0.479,2.222,0.753,4.069,0.823,5.542
	c-0.307,0.528-0.591,0.803-0.851,0.822l-0.924-0.112c0.024-0.204-0.586-0.837-1.832-1.901c0.022-0.189-0.417-0.68-1.321-1.475
	l0.023-0.185l-0.359-0.043c-0.369,0.918-1.459,2.158-3.269,3.716l-0.392,0.141l-0.371-0.045c-0.304-0.038-0.537-0.688-0.699-1.951
	l0.185,0.023l-0.14-0.393l1.119-4.554l-0.185-0.022c-0.232,0.097-0.487,0.128-0.763,0.094l-3.316-0.405
	c-0.639-0.078-0.984-0.308-1.041-0.689c0.174-1.429,1.203-2.175,3.088-2.239c1.66-0.342,2.511-0.675,2.551-1.001
	c0.027-0.225,0.211-0.703,0.551-1.434c0.015-0.124-0.039-0.193-0.162-0.208L539.098,296.722z"/>
</svg>
