<?xml version="1.0" encoding="utf-8"?>
<!-- Generator: Adobe Illustrator 15.0.0, SVG Export Plug-In  -->
<!DOCTYPE svg PUBLIC "-//W3C//DTD SVG 1.1//EN" "http://www.w3.org/Graphics/SVG/1.1/DTD/svg11.dtd" [
	<!ENTITY ns_flows "http://ns.adobe.com/Flows/1.0/">
]>
<svg version="1.1"
	 xmlns="http://www.w3.org/2000/svg" xmlns:xlink="http://www.w3.org/1999/xlink" xmlns:a="http://ns.adobe.com/AdobeSVGViewerExtensions/3.0/"
	 x="0px" y="0px" width="366px" height="366px" viewBox="0 0 366 366" enable-background="new 0 0 366 366" xml:space="preserve">
<defs>
</defs>
<circle fill="#F91949" cx="183" cy="183" r="183"/>
<path fill="#FFFFFF" d="M153.853,244.657c0,0-45.5,4-56.25,37c-0.75,1.75-1.5,4.5-1.5,4.5s27.5,15.75,54.5-13
	c2-3.5,6-8.25,6.75-10.25s2.25-16.75,2.25-16.75L153.853,244.657z"/>
<path fill="#FFFFFF" d="M165.853,248.408c0,0,18.999,44.334,54.667,42.166c1-0.5,11.334-38.5-30.334-43.166
	C187.52,247.24,166.52,245.908,165.853,248.408z"/>
<path fill="#FFFFFF" d="M245.686,149.241c0,0,27.627,66.743,17.75,96.261c-7.775,23.238-74.25,4.363-81.25,3.338
	c-7-1.027,33.5-20.28,41.75-27.724C239.568,207.01,253.186,161.048,245.686,149.241z"/>
<path fill="#FFFFFF" d="M161.188,248.24c4.123-0.584,76.999,11.166,91.499-64.333c1-3.5-57.5-4-86.001-38
	c-33.75,26.25-75,30.25-74.5,26.75C92.687,174.157,83.562,245.531,161.188,248.24z"/>
<path fill="#FFFFFF" d="M91.353,174.24c0,0,35-51.334,74.666-54.667c9.335-0.666,65.335,12.668,88.001,58.334
	c1.334,2.333,11.668-36.334,51.002-56c0,0-42-51.333-81-52c-2.334,0-42.334-6.001-67.001,3.333
	C151.353,76.573,71.019,96.906,91.353,174.24z"/>
<path fill="#FFFFFF" d="M175.186,259.482c0,7.455-5.561,15.07-12,13.5c-10.25-2.5-12-6.045-12-13.5c0-7.457,5.383-13.133,12-13.5
	C172.186,245.482,175.186,252.025,175.186,259.482z"/>
<path fill="#FFFFFF" d="M166.743,160.158c0,0-51.75,39.25-75.035,19.715c-2.743,0-1.715-61.38,66.879-70.098
	c3.43,0.364,98.776,2.907,98.433,84.988C257.02,194.763,199.244,205.658,166.743,160.158z"/>
<text transform="matrix(1 0 0 1 40.8271 212.8901)" font-family="'UhBeeKang-JaBold'" font-size="48.3333">종이팔이소녀</text>
<text transform="matrix(0.9995 0.0316 -0.0316 0.9995 162.5088 235.1753)" font-family="'UhBeeKang-Ja'" font-size="23.2132">행복을 빌어주세요</text>
<text transform="matrix(1 0 0 1 256.4863 208.686)" font-family="'UhBeeKang-Ja'" font-size="23.2132">의</text>
<path fill="#FFFFFF" d="M165.769,245.391c-0.882,0-2.196-0.223-3.187-1.004c-0.761-0.6-1.193-1.435-1.252-2.413
	c-0.026-0.44,0.309-0.817,0.748-0.844c0.44-0.034,0.817,0.308,0.844,0.748c0.031,0.527,0.243,0.938,0.647,1.257
	c0.806,0.635,2.102,0.718,2.505,0.647c0.689-0.121,0.979-0.172,1.691-1.954c0.415-1.038,1.1-1.456,1.601-1.624
	c1.324-0.444,2.69,0.349,2.841,0.44l0.377,0.301c1.351,1.687,2.312,1.766,2.559,1.774c0.269-0.148,0.972-0.547,1.635-1.026
	c1.292-0.933,3.833-1.318,5.436,0.757c0.85,1.103,2.042,0.995,2.397,0.935l2.971-1.895c0.217-0.093,2.221-0.833,5.77,1.641
	c0.807,0.562,1.513,0.763,2.103,0.59c0.909-0.265,1.368-1.342,1.373-1.353c0.169-0.404,0.634-0.6,1.04-0.432
	c0.405,0.167,0.602,0.628,0.437,1.035c-0.029,0.073-0.74,1.787-2.388,2.276c-1.08,0.32-2.248,0.048-3.477-0.808
	c-2.505-1.747-3.927-1.549-4.204-1.487l-3.103,1.95c-0.103,0.028-2.528,0.665-4.183-1.478c-1.143-1.482-2.845-0.723-3.238-0.439
	c-0.932,0.673-1.898,1.184-1.939,1.206l-0.135,0.056c-0.197,0.06-1.992,0.517-4.226-2.217l-0.075-0.053
	c-0.176-0.101-0.939-0.442-1.467-0.261c-0.098,0.033-0.396,0.135-0.623,0.703c-0.973,2.431-1.722,2.726-2.84,2.922
	C166.241,245.371,166.023,245.391,165.769,245.391z"/>
<path fill="#FFFFFF" d="M196.237,248.002c-0.35-0.264-0.85-0.197-1.116,0.154c-0.195,0.256-0.887,0.969-1.533,0.969
	c-0.015,0-0.03-0.001-0.046-0.002c-0.428-0.023-0.855-0.382-1.27-1.066c-0.719-1.186-1.662-1.913-2.807-2.16
	c-1.961-0.424-3.751,0.781-3.827,0.832l-1.959,2.101c-0.438,0.056-1.517,0.067-2.299-0.949c-1.604-2.078-4.144-1.693-5.437-0.757
	c-0.56,0.406-1.367,0.871-1.655,1.035c-0.54-0.08-1.493-0.479-2.537-1.785l-0.27-0.223c-0.611-0.525-2.206-1.078-3.872,0.589
	c-0.688,0.688-1.154,1.248-1.495,1.657c-0.512,0.617-0.665,0.777-0.964,0.83c-0.472,0.085-1.349,0.242-1.789-0.105
	c-0.229-0.181-0.361-0.527-0.392-1.032c-0.026-0.44-0.421-0.784-0.844-0.748c-0.439,0.026-0.774,0.403-0.748,0.844
	c0.059,0.979,0.395,1.716,0.997,2.19c1.006,0.79,2.393,0.541,3.144,0.406c0.807-0.143,1.233-0.656,1.822-1.365
	c0.339-0.406,0.76-0.912,1.396-1.549c0.978-0.978,1.605-0.584,1.767-0.459l0.075,0.053c0.649,0.792,1.304,1.333,1.915,1.691
	l-0.021,0.012c0.027,0.018,0.058,0.025,0.084,0.046c1.058,0.8,2.482,0.411,3.5-0.249c0.278-0.174,0.569-0.361,0.823-0.547
	c0.392-0.285,2.093-1.045,3.237,0.44c1.654,2.146,4.081,1.507,4.183,1.478l0.22-0.061l2.086-2.268
	c0.278-0.169,1.406-0.791,2.523-0.549c0.708,0.153,1.29,0.62,1.778,1.428c0.707,1.168,1.568,1.784,2.56,1.834
	c1.617,0.078,2.799-1.429,2.928-1.602C196.658,248.764,196.587,248.268,196.237,248.002z"/>
</svg>
