<?xml version="1.0" encoding="utf-8"?>
<!-- Generator: Adobe Illustrator 15.0.0, SVG Export Plug-In  -->
<!DOCTYPE svg PUBLIC "-//W3C//DTD SVG 1.1//EN" "http://www.w3.org/Graphics/SVG/1.1/DTD/svg11.dtd" [
	<!ENTITY ns_flows "http://ns.adobe.com/Flows/1.0/">
]>
<svg version="1.1"
	 xmlns="http://www.w3.org/2000/svg" xmlns:xlink="http://www.w3.org/1999/xlink" xmlns:a="http://ns.adobe.com/AdobeSVGViewerExtensions/3.0/"
	 x="0px" y="0px" width="1217px" height="698px" viewBox="-1.01 0 1217 698" enable-background="new -1.01 0 1217 698"
	 xml:space="preserve">
<defs>
</defs>
<rect fill="#CDDEFF" width="1217.372" height="698.392"/>
<circle fill="#FFFFFF" cx="608.687" cy="343.357" r="183.001"/>
<path fill="#F91949" d="M584.494,414.136c0,0-45.5,4-56.25,37c-0.75,1.75-1.5,4.5-1.5,4.5s27.5,15.75,54.5-13
	c2-3.5,6-8.25,6.75-10.25s2.25-16.75,2.25-16.75L584.494,414.136z"/>
<path fill="#F91949" d="M596.494,417.887c0,0,18.999,44.334,54.667,42.167c1-0.5,11.334-38.5-30.334-43.167
	C618.161,416.72,597.161,415.387,596.494,417.887z"/>
<path fill="#3F291E" d="M676.327,318.72c0,0,27.627,66.743,17.75,96.262c-7.775,23.238-74.25,4.363-81.25,3.337
	s33.5-20.279,41.75-27.724C670.21,376.489,683.827,330.527,676.327,318.72z"/>
<path fill="#F9E8DE" d="M591.83,417.719c4.123-0.583,76.999,11.167,91.499-64.333c1-3.5-57.5-4-86.001-38
	c-33.75,26.25-75,30.25-74.5,26.75C523.328,343.636,514.203,415.011,591.83,417.719z"/>
<path fill="#F91949" d="M521.994,343.719c0,0,35-51.334,74.666-54.667c9.335-0.666,65.335,12.668,88.001,58.334
	c1.334,2.333,11.668-36.334,51.002-56c0,0-42-51.333-81-52c-2.334,0-42.334-6.001-67.001,3.333
	C581.994,246.052,501.66,266.385,521.994,343.719z"/>
<path fill="#F91949" d="M605.827,428.961c0,7.456-5.561,15.07-12,13.5c-10.25-2.5-12-6.044-12-13.5s5.383-13.133,12-13.5
	C602.827,414.961,605.827,421.505,605.827,428.961z"/>
<path fill="#3F291E" d="M597.385,329.637c0,0-51.75,39.25-75.035,19.715c-2.743,0-1.715-61.38,66.879-70.098
	c3.43,0.364,98.776,2.907,98.433,84.988C687.661,364.242,629.886,375.137,597.385,329.637z"/>
<text transform="matrix(1 0 0 1 465.8613 515.6572)" font-family="'OTTtangsbudaejjigaeB-KSCpc-EUC-H'" font-size="48.3333">종이팔이소녀</text>
</svg>
